<?xml version="1.0" encoding="utf-8"?>
<!-- Generator: Adobe Illustrator 15.0.2, SVG Export Plug-In . SVG Version: 6.00 Build 0)  -->
<!DOCTYPE svg PUBLIC "-//W3C//DTD SVG 1.1//EN" "http://www.w3.org/Graphics/SVG/1.1/DTD/svg11.dtd">
<svg version="1.1" id="Layer_1" xmlns="http://www.w3.org/2000/svg" xmlns:xlink="http://www.w3.org/1999/xlink" x="0px" y="0px"
	 width="800px" height="600px" viewBox="0 0 800 600" enable-background="new 0 0 800 600" xml:space="preserve">
<g>
	<path fill="#9A8B7D" d="M282.417,297.565c-1.965-12.631,9.152-34.643,17.792-42.174c5.599-4.881,16.768-9.764,18.587-17.936
		c1.592-7.143-3.765-15.556-2.563-24.177c2.682-19.218,18.176-34.921,28.759-51.032c10.174-15.494,32.761-30.582,46.668-11.473
		c7.831,10.772,11.436,25.599,16.708,37.778c4.239,9.786,13.409,65.512,17.769,71.031c11.206,14.211,42.511,2.236,58.71,7.001
		c20.197,5.945,29.502,32.31,26.688,51.376c-1.696,11.529-9.96,26.964-18.238,34.892c-8.175,7.816-16.825,12.687-26.812,17.67
		c-9.256,3.012-23.855,6.839-35.204,4.945c-9.55-1.611-13.529-7.787-20.057-14.232c-5.282-5.217-12.032-7.85-19.753-6.08
		c-13.748,3.147-31.136,11.236-42.325-4.082c-10.563-14.467-36.68-59.314-47.688-58.379
		C294.288,293.304,289.348,297.213,282.417,297.565z M299.148,170.078c-5.617,7.237-6.367,10.729-8.255,20.345
		c-1.782,9.094,4.287,17.298,10.756,9.474c2.934-3.539,5.386-9.048,7.599-13.084c2.132-3.884,5.311-9.274,6.088-14.049
		c0.809-4.974-0.904-8.385-4.552-10.171C306.634,160.561,302.469,165.8,299.148,170.078z M448.392,429.242
		c-8.023,2.606-6.52,22.036,1.866,20.821c3.592-0.511,7.818-5.077,9.029-10.229C460.424,435.031,453.414,427.63,448.392,429.242z
		 M504.173,467.659c-2.065-4.124-4.262-4.671-8.004-4.805c-6.869-0.227-44.859,11.482-50.848,13.88
		c-5.211,2.075-25.03,11.436-24.508,26.747c0.047,1.25-0.182,2.529,2.301,2.425c26.527-1.64,51.71-8.263,74.618-18.948
		C508.533,480.818,505.644,470.607,504.173,467.659z M505.511,114.631c-1.469-0.583-3.335-0.113-4.861,0.257
		c0,0-7.238,1.789-4.082,6.858c4.728,7.594,12.324,10.796,19.601,15.201c10.517,6.352,18.588,14.001,28.196,22.335
		c9.737,8.456,18.587,19.805,23.01,32.002c1.205,3.303,2.51,17.087,2.464,20.052c-0.086,5.652-1.534,14.974-1.202,26.787
		c0.15,5.216,0.719,12.237,2.281,20.077c0.976,4.851,32.641,100.982,42.351,82.802c2.803-13.604,4.284-27.701,4.284-42.132
		C617.552,218.708,572.064,149.168,505.511,114.631z M345.016,491.769c12.398-7.047,7.126-31.489,26.02-28.533
		c6.111,0.946,1.464,4.546,4.898,7.588c3.08,2.717,4.894,3.126,9.201,4.083c10.922,2.407,19.785-14.591,30.477-15.451
		c7.313-0.597,10.517-9.856,3.089-15.141c-3.762-2.661-12.492-1.544-16.271,2.635c-2.175,2.407-8.593,19.82-10.911,11.909
		c-1.246-4.263-3.698-15.055-1.567-19.48c4.168-8.666,14.859-5.144,22.343-5.531c10.745-0.559,11.729-8.544,19.67-12.013
		c4.357-1.907,11.122-1.765,14.467-5.438c6.213-6.851,0.881-9.73,7.645-9.759c10.507-0.048,20.729,1.049,14.769-18.568
		c-1.619-5.346-12.74-5.186-17.856-3.354c-10.052,3.581-3.27,11.983-9.284,17.373c-2.105,1.869-18.382,0.986-21.252,0.248
		c-7.271-1.849-9.828-7.429-14.252-12.307c-14.922-16.468-34.277,3.399-45.998,4.821c-8.284,1.004-16.736,4.662-15.29-7.69
		c0.408-3.498,3.235-8.292,3.476-11.663c0.622-8.529-36.179-59.222-40.425-64.89c-10.653-14.216-24.959,1.479-32.669,12.129
		c-3.891,5.38-11.124,14.314-5.59,20.31c4.077,4.416,13.638,2.361,19.065,4.131c4.008,1.307,20.165,11.094,11.71,15.508
		c-3.098,1.621-14.618-7.094-20.374-6.817c-16.29,0.765-22.874,5.275-35.546-8.936c-8.436-9.476-18.309-37.545-28.332-37.386
		c-7.289,0.854-7.584,18.721-7.802,28.366c-0.104,4.624,0.189,8.641,0.71,12.58c16.973,66.253,65.831,119.714,129.253,143.086
		c1.403,0.453,3.495-0.406,5.163-1.099C344.068,492.274,344.552,492.035,345.016,491.769z M572.406,430.569
		c15.802-19.441,28.174-41.78,36.151-66.13c0.512-2.026-0.417-3.353-1.63-4.594c-1.345-1.396-3.146-1.239-4.85-0.746
		c-1.876,0.556-3.771,1.362-5.513,2.251c-2.198,1.129-4.264,2.522-6.272,3.941c-4.662,3.335-8.699,7.382-12.355,11.796
		c-2.233,2.7-4.225,5.563-6.061,8.547c-1.857,3.022-3.525,6.243-4.985,9.483c-1.382,3.05-2.501,6.197-3.361,9.426
		c-0.807,2.975-1.432,6.007-1.83,9.058c-0.36,2.747-0.511,5.532-0.198,8.288c0.293,2.588,1.005,5.079,1.818,7.54
		c0.067,0.21,0.54,1.044,0.69,1.186c1.253,1.185,2.085,1.498,4.387,1.431C571.439,431.95,572.406,430.569,572.406,430.569z"/>
	<path fill="#C41230" d="M687.865,181.726c-15.168-35.854-36.862-68.047-64.511-95.687C595.72,58.403,563.53,36.704,527.668,21.53
		c-24.194-10.231-49.377-17.176-75.202-20.776c-9.813,35.967,8.251,74.162,42.88,89.154c0.85,0.347,1.713,0.702,2.576,1.062
		c0.123,0.047,0.247,0.099,0.37,0.152l-0.009,0.004c26.439,11.175,50.724,27.455,71.631,48.359
		c42.585,42.585,66.041,99.216,66.041,159.447c0,60.222-23.456,116.857-66.041,159.44c-42.587,42.589-99.221,66.042-159.447,66.042
		c-60.225,0-116.855-23.453-159.441-66.042c-42.591-42.583-66.043-99.219-66.043-159.44c0-38.563-28.868-70.377-66.171-75.023
		c-6.253,24.352-9.412,49.448-9.412,75.023c0,40.631,7.962,80.061,23.671,117.196c15.167,35.86,36.873,68.053,64.508,95.688
		c27.64,27.645,59.833,49.339,95.687,64.509C330.407,592.041,369.837,600,410.467,600c40.635,0,80.065-7.959,117.201-23.674
		c35.862-15.17,68.052-36.864,95.687-64.509c27.648-27.636,49.343-59.828,64.511-95.688c15.708-37.136,23.677-76.565,23.677-117.196
		C711.542,258.303,703.573,218.869,687.865,181.726z"/>
</g>
</svg>
